<?xml version="1.0" encoding="utf-8"?>
<!-- Generator: Adobe Illustrator 22.1.0, SVG Export Plug-In . SVG Version: 6.00 Build 0)  -->
<svg version="1.1" id="Layer_1" xmlns="http://www.w3.org/2000/svg" xmlns:xlink="http://www.w3.org/1999/xlink" x="0px" y="0px"
	 viewBox="0 0 107.5 122.2" style="enable-background:new 0 0 107.5 122.2;" xml:space="preserve">
<style type="text/css">
	.st0{fill:#141414;}
	.st1{fill:#C82D0E;}
</style>
<g>
	<path class="st0" d="M104.4,75.7c0,0-1.6,3.8-8.9,10.1c-11.9,11.9-48.9,4.4-68.1-13.3c-1.4-1.2-1-4.2,0.9-6.1
		c3.4-3.3,6.1-6.6,8.4-8.6l-2.2-4.6c-2.7,3.1-5.3,6.3-7.1,8.2c-4,4.3-6.1,3.9-7.3,2.5c-3-4.8-4.8-10-4.6-15.7
		c0.5-20.2,14.1-25.5,14.1-25.5c12.2-11.6,31.5,22.2,43.8,21.4c14.8-7.1,29.3-28,29.3-28l-2.4-1.6c0,0-5.7,11.6-22.7,8.8
		s-26.4-29-47.5-17c-3.9,10.8-16.2,29-29.4,41c-9.9,70,79.8,71.9,84.8,62.9c9-16.4,22-32.3,22-32.3L104.4,75.7z"/>
	<g>
		<path class="st1" d="M94.6,0H65.6c-1.2,0-1.9,0.3-2.1,0.9c-0.3,0.6-0.4,2.4-0.4,5.2c0,2.2,0.6,3.6,1.7,4.2c1,0.6,1.6,1.1,1.9,1.5
			c0.2,0.4,0.3,1.2,0.3,2.4v44.1c0,1.2-0.9,2.1-2.1,2.1H46.7c-1.1,0-2-0.9-2-2V14.3c0-2,0.8-3.4,2.3-4.2c1.2-0.7,1.8-1.5,1.9-2.4
			V4.1c0-1.8-0.3-2.9-0.8-3.4S46.7,0,45.4,0H18.3c-1.5,0-2.4,0.3-2.8,0.8c-0.4,0.5-0.6,2.1-0.6,4.8c0,2.5,0.9,4.5,2.8,5.8
			c1.9,1.3,2.8,2.7,2.8,4.2v91.6c0,1.9-1.1,3.4-3.2,4.5c-1.2,0.7-1.9,1.2-2.1,1.7c-0.3,0.5-0.4,1.4-0.4,2.9c0,3.1,0.1,4.9,0.4,5.4
			c0.3,0.5,0.9,0.7,2,0.7h29.3c0.9,0,1.5-0.2,1.8-0.6c0.3-0.4,0.5-1.9,0.5-4.6c0-1.9-0.7-3.4-2-4.5c-1.3-1-2-2.2-2-3.9V67.5
			c0-1.3,1-2.3,2.3-2.3h18.1c1.1,0,1.9,0.9,1.9,1.9v41.1c0,1.5-0.8,2.8-2.3,3.9c-1.4,1-2,2.3-2,3.9c0,3.3,0.1,5.2,0.4,5.6
			c0.3,0.4,0.9,0.6,2,0.6h29.1c1.5,0,2.3-0.2,2.7-0.5c0.3-0.3,0.5-1,0.5-2V115c0-0.9-0.9-1.9-2.7-3c-2.2-1.4-3.3-3.3-3.3-5.7V15.6
			c0-2.1,0.9-3.7,2.8-4.7c1.7-0.9,2.7-1.5,3.1-1.8c0.3-0.3,0.5-1.4,0.5-3.1c0-2.9-0.2-4.7-0.5-5.2C96.9,0.3,96,0,94.6,0L94.6,0z"/>
	</g>
	<path class="st0" d="M77.6,23.5C60.8,20.8,51.5-4.9,30.9,6.1c0.5,5,1.1,10.7,1.6,15C44.6,16.1,62,45,73.4,44.3
		c14.8-7.1,29.3-28,29.3-28l-2.4-1.6C100.3,14.7,94.6,26.3,77.6,23.5z"/>
	<path class="st1" d="M44.7,33.8V14.3c0-2,0.8-3.4,2.3-4.2c1.2-0.7,1.8-1.5,1.9-2.4V4.1c0-1.8-0.3-2.9-0.8-3.4
		C47.7,0.2,46.7,0,45.4,0H18.3c-1.5,0-2.4,0.3-2.8,0.8c-0.4,0.5-0.6,2.1-0.6,4.8c0,2.5,0.9,4.5,2.8,5.8c1.9,1.3,2.8,2.7,2.8,4.2
		v18.6L44.7,33.8z"/>
	<path class="st0" d="M54.4,112.9L59,89.1C47.5,86,35.8,80.2,27.4,72.6c-1.4-1.2-1-4.2,0.9-6.1c5.4-5.4,9.7-10.7,12.7-10.8
		c4.3-0.2,10.3,21.3,18.7,22C71.6,78.5,79.3,64,79.3,64l-2.3-1.6c0,0-1,3.9-7.9,4.1c-8.1,0.2-9.2-19.7-23.5-22.6
		c-3.6-0.7-13.4,12.6-18.2,17.7c-4,4.3-6.1,3.9-7.3,2.5c-2.6-4.2-4.3-8.7-4.6-13.6L0,57.4C-0.3,94.1,29.8,108.9,54.4,112.9z"/>
	<path class="st1" d="M67.8,58.2L67,58.1v0.3c0,1.2-0.9,2.1-2.1,2.1H46.7c-0.6,0-1.2-0.3-1.6-0.7c-0.3-0.4-3-0.8-3-0.8l-1.8,1.2
		l2.4,7.2l2-0.1c0.1-1.2,1.1-2.1,2.3-2.1h18.1c0.4,0,0.8,0.1,1.1,0.4c0.3,0.2,1.6,0.2,1.6,0.2V58.2z"/>
</g>
</svg>
